[color=maroon][size=7][font=Impact][i][b]Feluda - Golapi Mukta Rahasya (1999) DVDrip - AlekhyaDas[/b][/i][/font][/size][/color]

[img]http://imageshack.us/a/img163/590/dvdob.jpg[/img]

[color=teal][size=6][font="Comic Sans MS"]Information [/font][/size][/color]

[b][size=4][font="Comic Sans MS"]General
Complete name                    : Feluda - Golapi Mukta Rahasya (1999) DVDrip - AlekhyaDasFeluda - Golapi Mukta Rahasya (1999) DVDrip.mp4
Format                           : MPEG-4
Format profile                   : Base Media / Version 2
Codec ID                         : mp42
File size                        : 449 MiB
Duration                         : 1h 38mn
Overall bit rate                 : 640 Kbps
Encoded date                     : UTC 2012-11-22 12:58:09
Tagged date                      : UTC 2012-11-22 12:59:10
Writing application              : mp4creator 1.6.1d
Source                           : DDR
Ripper                           : AlekhyaDas


Video
ID                               : 1
Format                           : MPEG-4 Visual
Format profile                   : Simple@L1
Format settings, BVOP            : No
Format settings, QPel            : No
Format settings, GMC             : No warppoints
Format settings, Matrix          : Default (H.263)
Codec ID                         : 20
Duration                         : 1h 38mn
Bit rate mode                    : Variable
Bit rate                         : 512 Kbps
Maximum bit rate                 : 1 936 Kbps
Width                            : 720 pixels
Height                           : 480 pixels
Display aspect ratio             : 3:2
Frame rate mode                  : Constant
Frame rate                       : 25.000 fps
Standard                         : NTSC
Color space                      : YUV
Chroma subsampling               : 4:2:0
Bit depth                        : 8 bits
Scan type                        : Progressive
Compression mode                 : Lossy
Bits/(Pixel*Frame)               : 0.059
Stream size                      : 359 MiB (80%)
Language                         : English
Encoded date                     : UTC 2012-11-22 12:58:09
Tagged date                      : UTC 2012-11-22 12:59:06

Audio
ID                               : 2
Format                           : AAC
Format/Info                      : Advanced Audio Codec
Format profile                   : LC
Codec ID                         : 40
Duration                         : 1h 38mn
Bit rate mode                    : Variable
Bit rate                         : 126 Kbps
Maximum bit rate                 : 186 Kbps
Channel(s)                       : 2 channels
Channel positions                : Front: L R
Sampling rate                    : 44.1 KHz
Compression mode                 : Lossy
Stream size                      : 88.2 MiB (20%)
Language                         : English
Encoded date                     : UTC 2012-11-22 12:59:07
Tagged date                      : UTC 2012-11-22 12:59:10
[/font][/size][/b]


[size=7][font=Verdana][color=purple]Screens[/color][/font][/size]


[img]http://s11.postimage.org/tyhr2gp0x/image.png[/img]

[img]http://s11.postimage.org/tzrovvqup/image.png[/img]

[img]http://s11.postimage.org/syrg6r9v5/image.png[/img]

[img]http://s11.postimage.org/bb9n8jzxt/image.png[/img]


[size=7][font="Comic Sans MS"][color=maroon]LIKE MY PAGE if you like my work 